<svg xmlns="http://www.w3.org/2000/svg" viewBox="0 0 38 38"><defs><style>.cls-1{fill:#aec90b;}</style></defs><g id="Capa_2" data-name="Capa 2"><g id="DG"><circle class="cls-1" cx="26.42" cy="16.18" r="1.86"/><circle class="cls-1" cx="19" cy="16.18" r="1.86"/><circle class="cls-1" cx="11.58" cy="16.18" r="1.86"/><path class="cls-1" d="M36.52,0h-35A1.48,1.48,0,0,0,0,1.48v29.4a1.48,1.48,0,0,0,1.48,1.48H14.62l3.12,5a1.5,1.5,0,0,0,2.52,0l3.12-5H36.52A1.48,1.48,0,0,0,38,30.88V1.48A1.48,1.48,0,0,0,36.52,0ZM35,29.39H22.56a1.47,1.47,0,0,0-1.25.69L19,33.74l-2.31-3.66a1.47,1.47,0,0,0-1.25-.69H3V3H35Z"/></g></g></svg>