<?xml version="1.0" encoding="utf-8"?>
<!-- Generator: Adobe Illustrator 25.3.0, SVG Export Plug-In . SVG Version: 6.00 Build 0)  -->
<svg version="1.1" id="Capa_1" xmlns="http://www.w3.org/2000/svg" xmlns:xlink="http://www.w3.org/1999/xlink" x="0px" y="0px"
	 viewBox="0 0 512 512" style="enable-background:new 0 0 512 512;" xml:space="preserve">
<style type="text/css">
	.st0{fill:#AEC90B;}
</style>
<g>
	<g>
		<g>
			<path class="st0" d="M53.1,98.8c4.5,0,9.1-1.5,12.8-4.6l54.3-45.3c8.5-7.1,9.6-19.7,2.6-28.2s-19.7-9.6-28.2-2.6L40.2,63.4
				c-8.5,7.1-9.6,19.7-2.6,28.2C41.6,96.3,47.3,98.8,53.1,98.8z"/>
			<path class="st0" d="M391.8,48.9l54.3,45.3c3.7,3.1,8.3,4.6,12.8,4.6c5.7,0,11.4-2.4,15.4-7.2c7.1-8.5,5.9-21.1-2.6-28.2
				l-54.3-45.3c-8.5-7.1-21.1-5.9-28.2,2.6C382.2,29.2,383.4,41.8,391.8,48.9z"/>
			<path class="st0" d="M422.9,109.1c-40.1-40.1-92-63.9-147.9-68.4V20c0-11-9-20-20-20c-11,0-20,9-20,20v20.9
				c-55.1,4.8-106.3,28.6-145.9,68.2C44.5,153.7,20,213,20,276s24.5,122.3,69.1,166.9c4.1,4.1,8.4,8.1,12.8,11.9l-16.1,27
				c-5.7,9.5-2.5,21.8,7,27.4c3.2,1.9,6.7,2.8,10.2,2.8c6.8,0,13.5-3.5,17.2-9.8l14.2-23.9C170.7,500.3,212.5,512,256,512
				c43.4,0,85-11.6,121.6-33.7l14.2,23.9c3.7,6.3,10.4,9.8,17.2,9.8c3.5,0,7-0.9,10.2-2.8c9.5-5.6,12.6-17.9,7-27.4l-25-42
				c-2.9-4.9-7.7-8.3-13.2-9.4c-5.5-1.1-11.3,0.2-15.8,3.5c-33.8,24.9-74,38.1-116.1,38.1c-108.1,0-196-87.9-196-196
				S147.9,80,256,80s196,87.9,196,196c0,33-8.4,65.6-24.2,94.4c-5.3,9.7-1.8,21.8,7.9,27.2c9.7,5.3,21.8,1.8,27.2-7.9
				C481.9,355,492,315.7,492,276C492,213,467.5,153.7,422.9,109.1z"/>
			<path class="st0" d="M255,129c-11,0-20,9-20,20v127c0,5.3,2.1,10.4,5.9,14.1l56.6,56.6c3.9,3.9,9,5.9,14.1,5.9s10.2-2,14.1-5.9
				c7.8-7.8,7.8-20.5,0-28.3L275,267.7V149C275,138,266,129,255,129z"/>
		</g>
	</g>
</g>
</svg>
