<svg xmlns="http://www.w3.org/2000/svg" viewBox="0 0 40 40"><defs><style>.cls-1{fill:#aec90b;}</style></defs><g id="Capa_2" data-name="Capa 2"><g id="DG"><path class="cls-1" d="M20,0A20,20,0,1,0,40,20,20,20,0,0,0,20,0ZM33.17,9.45a32.55,32.55,0,0,0-8.52-.65,32.36,32.36,0,0,0-5.26-5.66A16.78,16.78,0,0,1,33.17,9.45Zm-18-5.63A29.71,29.71,0,0,1,21,9.19,32.78,32.78,0,0,0,3.2,18.37,16.9,16.9,0,0,1,15.18,3.82ZM26.91,35.4A16.72,16.72,0,0,1,20,36.88a16.89,16.89,0,0,1-16.64-14A29.66,29.66,0,0,1,23.09,12.06,29.72,29.72,0,0,1,26.91,35.4Zm3.64-2.23a32.82,32.82,0,0,0-3.91-21.29,29.36,29.36,0,0,1,8.85,1.41,16.87,16.87,0,0,1-4.94,19.88Z"/></g></g></svg>