<svg xmlns="http://www.w3.org/2000/svg" viewBox="0 0 46.33 40"><defs><style>.cls-1{fill:#aec90b;}</style></defs><g id="Capa_2" data-name="Capa 2"><g id="DG"><path class="cls-1" d="M45.27,36.54a49.22,49.22,0,0,0-7.82-2.76,19.91,19.91,0,1,0-28.56,0,49,49,0,0,0-7.83,2.76,1.81,1.81,0,0,0,1.5,3.3,52.07,52.07,0,0,1,41.22,0,1.81,1.81,0,0,0,1.49-3.3Zm-32-3.72a16.29,16.29,0,1,1,19.86,0,57.76,57.76,0,0,0-19.86,0ZM24.33,16.53V13c1.6.12,2.07.9,2.88.9,1.08,0,1.52-1.35,1.52-2,0-1.69-2.87-2.09-4.4-2.14V9.09c0-.34-.46-.66-.93-.66s-.93.32-.93.66v.69c-2.61.37-4.91,1.86-4.91,5s2.65,4.2,4.91,5.06v4C20.65,23.48,19.82,22,18.78,22s-1.67,1.23-1.67,2.07c0,1.57,2.41,3.09,5.36,3.19v.61c0,.35.39.67.93.67s.93-.32.93-.67v-.71c2.88-.46,4.84-2.31,4.84-5.35C29.17,18.52,26.57,17.37,24.33,16.53Zm-1.62-.59c-.93-.39-1.57-.83-1.57-1.55s.47-1.15,1.57-1.37Zm1.38,7.84V20.49c.88.41,1.5.93,1.5,1.74S24.92,23.58,24.09,23.78Z"/></g></g></svg>