<svg xmlns="http://www.w3.org/2000/svg" width="194.16" height="131.675" viewBox="0 0 194.16 131.675">
  <g id="Grupo_2082" data-name="Grupo 2082" transform="translate(-84 -75.997)">
    <g id="Grupo_440" data-name="Grupo 440" transform="translate(-187.505 -140.003)">
      <path id="Trazado_171" data-name="Trazado 171" d="M294.289,487.395l-1.3,5.936h-2.667a10.075,10.075,0,0,0-.361-2.722,2.647,2.647,0,0,0-.959-1.375,3.007,3.007,0,0,0-1.77-.458,4.794,4.794,0,0,0-1.848.4,6.582,6.582,0,0,0-1.9,1.25,12.155,12.155,0,0,0-2.042,2.556,20.434,20.434,0,0,0-1.743,3.59,34.7,34.7,0,0,0-1.125,3.743,33,33,0,0,0-.736,3.847,26.8,26.8,0,0,0-.215,3.112,10.394,10.394,0,0,0,.319,2.826,3.188,3.188,0,0,0,1.1,1.729,3.418,3.418,0,0,0,2.166.611,5.992,5.992,0,0,0,2.611-.521,5.178,5.178,0,0,0,1.875-1.492,12.253,12.253,0,0,0,1.535-2.687h2.667l-1.305,6.006a26.4,26.4,0,0,1-3.924.82,31.823,31.823,0,0,1-4.194.256,8.909,8.909,0,0,1-6.653-2.367q-2.313-2.375-2.312-6.826a22.46,22.46,0,0,1,.243-3.119A28.875,28.875,0,0,1,273,497.317a19.141,19.141,0,0,1,2.465-4.881,14.689,14.689,0,0,1,3.333-3.409,13.544,13.544,0,0,1,4.021-1.979,15.846,15.846,0,0,1,4.625-.653,23.282,23.282,0,0,1,3.556.257,22.794,22.794,0,0,1,3.284.743Zm14.9,12.45,1.194-5.472a11.172,11.172,0,0,0-2.847-.389,7.282,7.282,0,0,0-4.09,1.243,13.916,13.916,0,0,0-3.6,3.66l-.243-.084,1.521-4.715h-2.3l-5.59.222-.306,1.341a3.3,3.3,0,0,1,1.493.4,1.309,1.309,0,0,1,.479,1.173,15.238,15.238,0,0,1-.445,2.91L291.27,514.49H297.1l2.243-10.437a13.566,13.566,0,0,1,.528-1.986,8.388,8.388,0,0,1,.708-1.493,11.372,11.372,0,0,1,1.069-1.465,7.6,7.6,0,0,1,1.1-1.09,3.539,3.539,0,0,1,.819-.465,1.89,1.89,0,0,1,.68-.131,1.061,1.061,0,0,1,1.007.527,4.31,4.31,0,0,1,.292,1.9Zm16.258,10.416a14.016,14.016,0,0,1-4.423,3.438,11.933,11.933,0,0,1-5.139,1.118,9,9,0,0,1-4.049-.833,5.552,5.552,0,0,1-2.514-2.472,8.446,8.446,0,0,1-.84-3.916,18.816,18.816,0,0,1,1.465-6.694,11.931,11.931,0,0,1,2.6-3.7,11.089,11.089,0,0,1,3.771-2.383,13.135,13.135,0,0,1,4.75-.833,8.031,8.031,0,0,1,4.639,1.112,3.85,3.85,0,0,1,1.591,3.381,5.727,5.727,0,0,1-.626,2.729,5.927,5.927,0,0,1-2.062,2.139,12.5,12.5,0,0,1-4.076,1.542,32.77,32.77,0,0,1-6.361.673,11.627,11.627,0,0,0-.264,2.479,7.371,7.371,0,0,0,.139,1.438,3.254,3.254,0,0,0,.514,1.209,2.676,2.676,0,0,0,.972.847,3.46,3.46,0,0,0,1.569.313,7.163,7.163,0,0,0,3.236-.723,15.341,15.341,0,0,0,3.4-2.57l1.708,1.708Zm-10.784-6.84a10.814,10.814,0,0,0,5.729-1.429,4.3,4.3,0,0,0,1.986-3.778,2.315,2.315,0,0,0-.479-1.577,1.685,1.685,0,0,0-1.333-.534,4.351,4.351,0,0,0-3.41,1.868,15.024,15.024,0,0,0-2.492,5.451ZM343.627,491.5c.083-.334.181-.827.285-1.459a9.285,9.285,0,0,0,.167-1.451,2.345,2.345,0,0,0-.09-.7,1.025,1.025,0,0,0-.278-.417,1.4,1.4,0,0,0-.486-.249,9.756,9.756,0,0,0-1.2-.216l.327-1.32,6.083-.326h2.3l-5.125,23.131c-.153.66-.271,1.223-.347,1.674a6.624,6.624,0,0,0-.125,1.153,1.705,1.705,0,0,0,.451,1.32,2.767,2.767,0,0,0,1.584.514l-.223,1.339h-7.812l1.1-4.174-.263-.076a17.515,17.515,0,0,1-2.577,2.778,7.809,7.809,0,0,1-2.34,1.389,7.915,7.915,0,0,1-2.653.409,4.58,4.58,0,0,1-2.5-.674,4.447,4.447,0,0,1-1.708-2.124,9.3,9.3,0,0,1-.632-3.7,19.215,19.215,0,0,1,.5-4.312,16.852,16.852,0,0,1,1.465-4.056,11.027,11.027,0,0,1,2.451-3.229,10.271,10.271,0,0,1,3.361-2.041,11.732,11.732,0,0,1,4.1-.7,9.836,9.836,0,0,1,3.5.632l.687-3.118Zm-2.069,10.339c.076-.41.152-.883.222-1.417a13.573,13.573,0,0,0,.1-1.576,3.455,3.455,0,0,0-.507-2.055,1.939,1.939,0,0,0-1.667-.688,4.194,4.194,0,0,0-3.354,1.9,14.926,14.926,0,0,0-2.361,5.118,21.723,21.723,0,0,0-.9,5.757,4.45,4.45,0,0,0,.437,2.222,1.47,1.47,0,0,0,1.354.729,4.086,4.086,0,0,0,2.736-1.312,10.5,10.5,0,0,0,2.243-3.084,22.309,22.309,0,0,0,1.528-4.84l.167-.75Zm19.6-15.645-1.055,4.985H354.83l1.118-4.985Zm-4.7,22.866,3.278-14.971h-2.319l-5.959.222-.3,1.341a3.021,3.021,0,0,1,1.576.458,1.45,1.45,0,0,1,.375,1.132,7.764,7.764,0,0,1-.1,1.146c-.062.458-.188,1.089-.361,1.9l-3.173,14.2h8.458l.229-1.339a2.928,2.928,0,0,1-1.576-.514,1.554,1.554,0,0,1-.458-1.257,7.845,7.845,0,0,1,.055-.813c.042-.326.139-.833.285-1.507Zm6.314-.263a5.6,5.6,0,0,0,.6,2.348,2.776,2.776,0,0,0,1.229,1.221,4.054,4.054,0,0,0,1.708.334,3.583,3.583,0,0,0,2.486-.786,2.8,2.8,0,0,0,.875-2.2,3.3,3.3,0,0,0-.285-1.445,3.76,3.76,0,0,0-.938-1.152,16.533,16.533,0,0,0-2.118-1.452,9.7,9.7,0,0,1-2.958-2.535,4.969,4.969,0,0,1-.924-2.944,5.32,5.32,0,0,1,2.236-4.6,10.6,10.6,0,0,1,6.263-1.6,25.486,25.486,0,0,1,6.653.938l-1.056,4.86h-2.583a4.95,4.95,0,0,0-.965-2.792,2.863,2.863,0,0,0-2.25-.888,3.238,3.238,0,0,0-2.187.7,2.365,2.365,0,0,0-.827,1.9,2.636,2.636,0,0,0,.319,1.319,4.021,4.021,0,0,0,1.008,1.139,17.007,17.007,0,0,0,2.055,1.382,9.669,9.669,0,0,1,3.09,2.645,5.5,5.5,0,0,1,.938,3.194,5.724,5.724,0,0,1-1.112,3.542A6.53,6.53,0,0,1,371,514.1a12.44,12.44,0,0,1-4.382.715,28.309,28.309,0,0,1-7.569-.978l1.139-5.042Zm31.668,1.465-1.708-1.708a15.314,15.314,0,0,1-3.4,2.57,7.163,7.163,0,0,1-3.236.723,3.46,3.46,0,0,1-1.569-.313,2.685,2.685,0,0,1-.972-.847,3.242,3.242,0,0,1-.514-1.209,7.418,7.418,0,0,1-.139-1.438,11.631,11.631,0,0,1,.265-2.479,32.771,32.771,0,0,0,6.36-.673,12.491,12.491,0,0,0,4.077-1.542,5.921,5.921,0,0,0,2.061-2.139,5.726,5.726,0,0,0,.626-2.729A3.849,3.849,0,0,0,394.7,495.1a8.029,8.029,0,0,0-4.638-1.112,13.139,13.139,0,0,0-4.75.833,11.081,11.081,0,0,0-3.771,2.383,11.925,11.925,0,0,0-2.6,3.7,18.83,18.83,0,0,0-1.465,6.694,8.446,8.446,0,0,0,.84,3.916,5.548,5.548,0,0,0,2.514,2.472,8.989,8.989,0,0,0,4.048.833,11.936,11.936,0,0,0,5.139-1.118,14.009,14.009,0,0,0,4.423-3.438Zm-10.785-6.84a15.035,15.035,0,0,1,2.493-5.451,4.352,4.352,0,0,1,3.411-1.868,1.683,1.683,0,0,1,1.333.534,2.312,2.312,0,0,1,.479,1.577,4.3,4.3,0,0,1-1.986,3.778,10.815,10.815,0,0,1-5.73,1.429Zm30.613-3.576h-3.646a4.32,4.32,0,0,0-.292-1.9,1.063,1.063,0,0,0-1.008-.527,1.891,1.891,0,0,0-.68.131,3.543,3.543,0,0,0-.819.465,7.523,7.523,0,0,0-1.1,1.09,11.3,11.3,0,0,0-1.069,1.465,8.41,8.41,0,0,0-.709,1.493,13.633,13.633,0,0,0-.527,1.986l-2.244,10.437h-5.834l3.195-14.361a15.25,15.25,0,0,0,.444-2.91,1.311,1.311,0,0,0-.478-1.173,3.307,3.307,0,0,0-1.493-.4l.306-1.341,5.589-.222h2.3l-1.52,4.715.243.084a13.911,13.911,0,0,1,3.6-3.66,7.283,7.283,0,0,1,4.091-1.243,11.175,11.175,0,0,1,2.847.389l-1.194,5.472Zm21.7-5.535.708,1.341q-2.563,6.79-11.84,19.145h-3.945L419,499.3a11.68,11.68,0,0,0-.458-2.306,2.245,2.245,0,0,0-.646-.972,2.135,2.135,0,0,0-1.159-.367l.306-1.341h7.166l1.4,15.195a58.261,58.261,0,0,0,4.528-7.334,11.814,11.814,0,0,0,1.451-4.91,1.676,1.676,0,0,0-.368-1.173,1.8,1.8,0,0,0-1.278-.437l.285-1.341Zm11.321-8.117-1.056,4.985h-5.271l1.119-4.985Zm-4.7,22.866,3.277-14.971h-2.319l-5.958.222-.306,1.341a3.018,3.018,0,0,1,1.576.458,1.449,1.449,0,0,1,.375,1.132,7.9,7.9,0,0,1-.1,1.146c-.063.458-.188,1.089-.362,1.9l-3.173,14.2h8.458l.229-1.339a2.928,2.928,0,0,1-1.576-.514,1.552,1.552,0,0,1-.458-1.257,7.669,7.669,0,0,1,.055-.813c.042-.326.138-.833.285-1.507Zm21.884-9.215h-3.646a4.314,4.314,0,0,0-.292-1.9,1.063,1.063,0,0,0-1.008-.527,1.891,1.891,0,0,0-.68.131,3.531,3.531,0,0,0-.819.465,7.527,7.527,0,0,0-1.1,1.09,11.337,11.337,0,0,0-1.069,1.465,8.406,8.406,0,0,0-.709,1.493,13.6,13.6,0,0,0-.528,1.986L452.38,514.49h-5.833l3.194-14.361a15.226,15.226,0,0,0,.444-2.91,1.311,1.311,0,0,0-.479-1.173,3.307,3.307,0,0,0-1.493-.4l.3-1.341,5.59-.222h2.3l-1.52,4.715.242.084a13.894,13.894,0,0,1,3.6-3.66,7.283,7.283,0,0,1,4.091-1.243,11.175,11.175,0,0,1,2.847.389Z" transform="translate(0 -179.567)" fill="#fff"/>
      <path id="Trazado_172" data-name="Trazado 172" d="M449.124,584.305a2.72,2.72,0,0,1,2.952,2.952,4.093,4.093,0,0,1-.982,2.856A3.339,3.339,0,0,1,448.5,591.2a2.858,2.858,0,0,1-2.128-.783,2.936,2.936,0,0,1-.773-2.156,4.125,4.125,0,0,1,.973-2.864,3.266,3.266,0,0,1,2.552-1.087Zm31.131.125q-.349,1.73-.528,2.814a11.313,11.313,0,0,0-.177,1.512,1.178,1.178,0,0,0,.22.759.738.738,0,0,0,.611.27,2.187,2.187,0,0,0,.633-.119,5.056,5.056,0,0,0,.813-.35l.1-.692q.186-1.223.281-2.178c.062-.634.1-1.244.117-1.822q.477-.005.946-.057c.313-.032.621-.079.926-.137q-.4,2.2-.586,3.687a20.359,20.359,0,0,0-.187,2.46c0,.049,0,.119.006.211a1.284,1.284,0,0,1,0,.2c-.055,0-.114-.006-.181-.008s-.162,0-.288,0c-.154,0-.309.007-.464.015s-.314.027-.476.047l-.182-.828a10.156,10.156,0,0,1-1.454.725,3.075,3.075,0,0,1-1.08.235,1.381,1.381,0,0,1-1.09-.443,1.8,1.8,0,0,1-.394-1.236q0-.319.236-1.934a25.41,25.41,0,0,0,.281-2.933c.313,0,.631-.022.957-.057s.643-.079.96-.137Zm28.039-3.139q-.582,3.214-.872,5.484a30.416,30.416,0,0,0-.289,3.589c0,.087,0,.177.007.268s.011.211.019.356l-1.4.013-.207-.918a3.707,3.707,0,0,1-1.087.806,2.757,2.757,0,0,1-1.2.281,1.947,1.947,0,0,1-1.626-.768,3.335,3.335,0,0,1-.6-2.1,4.322,4.322,0,0,1,.935-2.867,2.954,2.954,0,0,1,2.372-1.12,2.84,2.84,0,0,1,.87.136,3.5,3.5,0,0,1,.858.426c.062-.571.118-1.129.162-1.677s.082-1.077.108-1.595c.335-.028.671-.069,1-.122s.645-.117.955-.2Zm-2.39,4.7a2.46,2.46,0,0,0-.637-.324,2.16,2.16,0,0,0-.666-.106,1.6,1.6,0,0,0-1.35.692,3,3,0,0,0-.516,1.833,2.093,2.093,0,0,0,.344,1.255,1.06,1.06,0,0,0,.9.475,1.44,1.44,0,0,0,1.344-.884,8.042,8.042,0,0,0,.583-2.942Zm-7.162,1.1c.013-.079.024-.161.031-.243s.008-.168.008-.255a1.069,1.069,0,0,0-1.174-1.174,1.294,1.294,0,0,0-1,.439,2.346,2.346,0,0,0-.525,1.233Zm1.416.924h-4.187c-.005.034-.008.072-.011.119s0,.106,0,.187a1.427,1.427,0,0,0,1.6,1.6,4.645,4.645,0,0,0,1.891-.4l-.13,1.156a5.124,5.124,0,0,1-2.273.523,2.671,2.671,0,0,1-2.019-.75,2.892,2.892,0,0,1-.719-2.089,4.386,4.386,0,0,1,.945-2.937,3.1,3.1,0,0,1,2.479-1.114,2.547,2.547,0,0,1,1.868.658,2.473,2.473,0,0,1,.666,1.844c0,.233-.008.45-.025.649a4.19,4.19,0,0,1-.082.555Zm-7.063-5.52a5.5,5.5,0,0,1-.695.2,4.7,4.7,0,0,1-.692.1l-.63,1.608-1.2.5-.164.768h1.1q-.1.734-.281,1.91a18.747,18.747,0,0,0-.23,1.882,1.578,1.578,0,0,0,.449,1.22,1.868,1.868,0,0,0,1.31.416,4.468,4.468,0,0,0,.647-.05,5.566,5.566,0,0,0,.671-.151l.324-1.154a4,4,0,0,1-.417.082,2.65,2.65,0,0,1-.339.025,1.006,1.006,0,0,1-.727-.218.963.963,0,0,1-.221-.705,10.582,10.582,0,0,1,.119-1.216c.079-.578.189-1.259.33-2.04h1.4l.475-1.161h-1.672c.074-.4.149-.761.222-1.082s.146-.634.221-.939Zm-4.02,2.034-.061,1.2a6.054,6.054,0,0,0-.671-.175,3.25,3.25,0,0,0-.554-.056,1.505,1.505,0,0,0-.833.2.615.615,0,0,0-.308.539.606.606,0,0,0,.149.4,3.686,3.686,0,0,0,.7.554l.074.048q1.237.812,1.236,1.685a1.889,1.889,0,0,1-.793,1.568,3.314,3.314,0,0,1-2.066.6,4.507,4.507,0,0,1-.745-.061,4.154,4.154,0,0,1-.714-.194l-.013-1.273a3.947,3.947,0,0,0,.74.255,3.227,3.227,0,0,0,.72.087,1.456,1.456,0,0,0,.849-.228.692.692,0,0,0,.324-.589c0-.262-.257-.559-.774-.893-.109-.066-.191-.117-.25-.155a3.109,3.109,0,0,1-.9-.784,1.475,1.475,0,0,1-.234-.839,1.809,1.809,0,0,1,.777-1.512,3.341,3.341,0,0,1,2.062-.584,4.109,4.109,0,0,1,.6.048,5.611,5.611,0,0,1,.69.158Zm-28.318-.039.043,1.392a2.076,2.076,0,0,0-.559-.2,3.117,3.117,0,0,0-.671-.066,1.888,1.888,0,0,0-1.516.686,2.709,2.709,0,0,0-.58,1.806,1.762,1.762,0,0,0,.405,1.254,1.542,1.542,0,0,0,1.18.431,3.109,3.109,0,0,0,.684-.079,4.366,4.366,0,0,0,.744-.239l-.293,1.352a4.494,4.494,0,0,1-.894.273,5.406,5.406,0,0,1-1,.089,2.273,2.273,0,0,1-1.8-.745,3.044,3.044,0,0,1-.651-2.067,4.194,4.194,0,0,1,1.017-2.918,3.365,3.365,0,0,1,2.626-1.133,4.684,4.684,0,0,1,1.262.168Zm13.034,6.5h-1.915c.223-1.051.395-1.945.512-2.675a11.351,11.351,0,0,0,.175-1.58,1.146,1.146,0,0,0-.222-.764.816.816,0,0,0-.658-.26,2.4,2.4,0,0,0-.656.106,5.44,5.44,0,0,0-.822.331q-.188,1.1-.324,2.3t-.245,2.542h-1.9q.418-1.772.632-3.316a20.117,20.117,0,0,0,.215-2.791v-.406h.175c.2,0,.406-.015.608-.034s.405-.045.607-.079l.233.918a8.767,8.767,0,0,1,1.448-.726,3.316,3.316,0,0,1,1.128-.234,1.406,1.406,0,0,1,1.1.437,1.754,1.754,0,0,1,.4,1.222q0,.308-.22,1.966t-.268,3.045Zm-9.241-6.683a2.72,2.72,0,0,1,2.952,2.952,4.09,4.09,0,0,1-.982,2.856,3.337,3.337,0,0,1-2.594,1.082,2.859,2.859,0,0,1-2.127-.783,2.936,2.936,0,0,1-.773-2.156,4.123,4.123,0,0,1,.974-2.864,3.262,3.262,0,0,1,2.55-1.087Zm1.254,2.926a1.863,1.863,0,0,0-.348-1.213,1.232,1.232,0,0,0-1.005-.422,1.44,1.44,0,0,0-1.257.717,3.486,3.486,0,0,0-.471,1.929,1.892,1.892,0,0,0,.344,1.219,1.218,1.218,0,0,0,1,.417,1.448,1.448,0,0,0,1.266-.718,3.444,3.444,0,0,0,.475-1.929Zm-59.917-5.213.013,1.74a3.069,3.069,0,0,0-.777-.334,3.2,3.2,0,0,0-.859-.116,2.519,2.519,0,0,0-2.134,1.1,4.829,4.829,0,0,0-.805,2.912,2.665,2.665,0,0,0,.5,1.759,1.846,1.846,0,0,0,1.489.592,3.777,3.777,0,0,0,1.041-.156,6.365,6.365,0,0,0,1.161-.468l-.411,1.6a5.048,5.048,0,0,1-1.111.409,4.878,4.878,0,0,1-1.167.141,3.269,3.269,0,0,1-2.532-.96,3.892,3.892,0,0,1-.886-2.733,7.492,7.492,0,0,1,.315-2.208,5.681,5.681,0,0,1,.92-1.817,4.271,4.271,0,0,1,1.544-1.255,4.64,4.64,0,0,1,2.013-.424,6.518,6.518,0,0,1,.839.056,7.36,7.36,0,0,1,.845.164Zm2.156,2.337c-.185.038-.377.065-.571.085s-.39.03-.59.034h-.162c0,.054.009.112.011.178s0,.164,0,.3a18.191,18.191,0,0,1-.215,2.56q-.214,1.476-.671,3.473h1.947a14.1,14.1,0,0,1,.587-4.042,1.446,1.446,0,0,1,1.391-1.018,1.093,1.093,0,0,1,.347.056,1.326,1.326,0,0,1,.335.175l.491-1.61a2.049,2.049,0,0,0-.341-.116,1.411,1.411,0,0,0-.332-.04,1.724,1.724,0,0,0-1.024.353,4.39,4.39,0,0,0-1.012,1.108l-.194-1.5Zm7.059,2.732c.012-.079.023-.161.029-.243s.009-.168.009-.255a1.069,1.069,0,0,0-1.174-1.174,1.3,1.3,0,0,0-1,.439,2.34,2.34,0,0,0-.523,1.233Zm1.416.924H412.33c0,.034-.008.072-.01.119s0,.106,0,.187a1.427,1.427,0,0,0,1.6,1.6,4.651,4.651,0,0,0,1.891-.4l-.13,1.156a5.124,5.124,0,0,1-2.272.523,2.666,2.666,0,0,1-2.019-.75,2.886,2.886,0,0,1-.72-2.089,4.385,4.385,0,0,1,.945-2.937,3.094,3.094,0,0,1,2.479-1.114,2.548,2.548,0,0,1,1.868.658,2.473,2.473,0,0,1,.667,1.844c0,.233-.009.45-.026.649a4.1,4.1,0,0,1-.081.555Zm5.493-3.525.042,1.392a2.068,2.068,0,0,0-.558-.2,3.119,3.119,0,0,0-.671-.066,1.889,1.889,0,0,0-1.516.686,2.712,2.712,0,0,0-.58,1.806,1.758,1.758,0,0,0,.405,1.254,1.539,1.539,0,0,0,1.179.431,3.1,3.1,0,0,0,.684-.079,4.383,4.383,0,0,0,.745-.239l-.294,1.352a4.474,4.474,0,0,1-.894.273,5.394,5.394,0,0,1-1,.089,2.272,2.272,0,0,1-1.8-.745,3.042,3.042,0,0,1-.651-2.067,4.192,4.192,0,0,1,1.018-2.918,3.363,3.363,0,0,1,2.626-1.133,4.684,4.684,0,0,1,1.261.168Zm3.156-.117q-.333,1.636-.548,3.292t-.309,3.328h-1.927q.438-2.095.645-3.584a18.653,18.653,0,0,0,.209-2.5c0-.046,0-.112-.007-.2s-.006-.151-.006-.194c.3,0,.618-.011.944-.037s.658-.061,1-.106Zm-.792-2.952a.912.912,0,0,1,.658.23.847.847,0,0,1,.24.637,1.134,1.134,0,0,1-.336.82,1.083,1.083,0,0,1-.8.347.8.8,0,0,1-.622-.255.969.969,0,0,1-.234-.679,1.058,1.058,0,0,1,1.1-1.1Zm5.443,5.671c.013-.079.023-.161.029-.243s.009-.168.009-.255a1.068,1.068,0,0,0-1.174-1.174,1.3,1.3,0,0,0-1,.439,2.332,2.332,0,0,0-.524,1.233Zm1.416.924h-4.187c0,.034-.009.072-.011.119s0,.106,0,.187a1.427,1.427,0,0,0,1.6,1.6,4.645,4.645,0,0,0,1.891-.4l-.13,1.156a5.123,5.123,0,0,1-2.272.523,2.667,2.667,0,0,1-2.019-.75,2.889,2.889,0,0,1-.72-2.089,4.384,4.384,0,0,1,.946-2.937,3.092,3.092,0,0,1,2.479-1.114,2.546,2.546,0,0,1,1.868.658,2.473,2.473,0,0,1,.667,1.844c0,.233-.009.45-.026.649a4.076,4.076,0,0,1-.081.555Zm6.274,2.977h-1.914c.224-1.051.394-1.945.511-2.675a11.2,11.2,0,0,0,.175-1.58,1.149,1.149,0,0,0-.221-.764.817.817,0,0,0-.658-.26,2.4,2.4,0,0,0-.656.106,5.483,5.483,0,0,0-.822.331q-.188,1.1-.324,2.3t-.244,2.542h-1.9q.418-1.772.632-3.316a20.135,20.135,0,0,0,.216-2.791v-.406h.174c.2,0,.407-.015.609-.034s.4-.045.607-.079l.232.918a8.793,8.793,0,0,1,1.448-.726,3.322,3.322,0,0,1,1.129-.234,1.4,1.4,0,0,1,1.1.437,1.753,1.753,0,0,1,.4,1.222q0,.308-.219,1.966t-.269,3.045Zm8.268-9.7c-.308.079-.626.145-.954.2s-.662.093-1,.122c-.025.517-.06,1.048-.106,1.595s-.1,1.106-.162,1.677a3.5,3.5,0,0,0-.858-.426,2.837,2.837,0,0,0-.869-.136,2.954,2.954,0,0,0-2.373,1.12,4.318,4.318,0,0,0-.935,2.867,3.334,3.334,0,0,0,.6,2.1,1.947,1.947,0,0,0,1.625.768,2.764,2.764,0,0,0,1.2-.281,3.7,3.7,0,0,0,1.085-.806l.207.918,1.4-.013c-.009-.144-.016-.264-.02-.356s-.006-.181-.006-.268a30.309,30.309,0,0,1,.29-3.589q.29-2.272.87-5.484Zm-2.389,4.7a8.039,8.039,0,0,1-.584,2.942,1.439,1.439,0,0,1-1.344.884,1.061,1.061,0,0,1-.9-.475,2.093,2.093,0,0,1-.343-1.255,3,3,0,0,1,.515-1.833,1.6,1.6,0,0,1,1.35-.692,2.163,2.163,0,0,1,.667.106,2.47,2.47,0,0,1,.637.324Zm6.992,1.241a1.86,1.86,0,0,0-.349-1.213,1.23,1.23,0,0,0-1.005-.422,1.44,1.44,0,0,0-1.256.717,3.486,3.486,0,0,0-.471,1.929,1.89,1.89,0,0,0,.343,1.219,1.219,1.219,0,0,0,1,.417,1.447,1.447,0,0,0,1.265-.718A3.444,3.444,0,0,0,450.378,587.232Z" transform="translate(-85.267 -243.52)" fill="#fff"/>
      <g id="Grupo_437" data-name="Grupo 437" transform="translate(345.882 216)">
        <path id="Trazado_173" data-name="Trazado 173" d="M503.617,233.682a8.842,8.842,0,1,0-8.994-8.841A8.936,8.936,0,0,0,503.617,233.682Z" transform="translate(-494.623 -216)" fill="#fff" fill-rule="evenodd"/>
        <path id="Trazado_174" data-name="Trazado 174" d="M513.938,227.4a8.641,8.641,0,0,0-.664-3.315,9.026,9.026,0,0,0-7.667-4.248,8.935,8.935,0,0,0-8.993,8.841,8.643,8.643,0,0,0,.664,3.316,9.026,9.026,0,0,0,7.667,4.247A8.936,8.936,0,0,0,513.938,227.4Z" transform="translate(-495.95 -218.556)" fill="#fff" fill-rule="evenodd"/>
        <path id="Trazado_175" data-name="Trazado 175" d="M503.617,216a8.936,8.936,0,0,0-8.994,8.841,8.734,8.734,0,0,0,2.6,6.2,9.034,9.034,0,0,0,5.2,1.647,8.936,8.936,0,0,0,8.995-8.841,8.734,8.734,0,0,0-2.6-6.2A9.037,9.037,0,0,0,503.617,216Z" transform="translate(-494.623 -216)" fill="#fff" fill-rule="evenodd" opacity="0.5"/>
      </g>
      <g id="Grupo_438" data-name="Grupo 438" transform="translate(376.729 216)">
        <path id="Trazado_176" data-name="Trazado 176" d="M596.15,233.682a8.842,8.842,0,1,0-8.993-8.841A8.936,8.936,0,0,0,596.15,233.682Z" transform="translate(-587.157 -216)" fill="#fff" fill-rule="evenodd"/>
        <path id="Trazado_177" data-name="Trazado 177" d="M606.47,227.4a8.642,8.642,0,0,0-.664-3.315,9.027,9.027,0,0,0-7.668-4.248,8.936,8.936,0,0,0-8.993,8.841,8.641,8.641,0,0,0,.664,3.316,9.026,9.026,0,0,0,7.666,4.247A8.936,8.936,0,0,0,606.47,227.4Z" transform="translate(-588.482 -218.556)" fill="#fff" fill-rule="evenodd"/>
        <path id="Trazado_178" data-name="Trazado 178" d="M596.15,216a8.935,8.935,0,0,0-8.993,8.841,8.736,8.736,0,0,0,2.6,6.2,9.035,9.035,0,0,0,5.2,1.647,8.936,8.936,0,0,0,8.994-8.841,8.736,8.736,0,0,0-2.6-6.2A9.038,9.038,0,0,0,596.15,216Z" transform="translate(-587.157 -216)" fill="#fff" fill-rule="evenodd" opacity="0.5"/>
      </g>
      <path id="Trazado_179" data-name="Trazado 179" d="M443.548,347.417C433,342.436,426.472,331.9,427.775,321.246c1.851-15.128,18.646-26.85,37.56-27.99.454-.027.908-.053,1.366-.064.678-.016.982.008,1.467.024-.8.286-4.352,1.511-5.131,1.838-15.058,3.639-26.9,13.585-27.694,28.165-.934,17.243,24.6,25.324,38.995,10.379a34.113,34.113,0,0,0,3.45-4.232,33.372,33.372,0,0,0,2.652-4.615,4.138,4.138,0,0,0,.32-.944c.159-.871-.574-.917-1.274-.949-.434-.019-1.186,0-1.839.023-2.986.1-2.471-2.083-.27-4.126,3.972-3.685,6.762-6.817,11.935-11.678,1.117-1.051,3.581-2.646,5-.292,1.725,2.209,6.532,7.951,8.845,13.139.494,1.109,1.529,2.991-.573,3.122-1.079.068-2.934-.024-3.508.032-.758.073-1.217.147-1.686,1.458a37.252,37.252,0,0,1-20.222,21.452C466.972,350.588,453.953,352.331,443.548,347.417Z" transform="translate(-104.067 -51.456)" fill="#fff" fill-rule="evenodd"/>
      <path id="Trazado_180" data-name="Trazado 180" d="M496.326,307.42a2.344,2.344,0,0,0-1.1-1.016,5.534,5.534,0,0,0-2.686,1.48c-5.173,4.861-7.964,7.993-11.935,11.678a4.7,4.7,0,0,0-1.8,2.949,2.584,2.584,0,0,0,1.571.324c.625-.021,1.344-.041,1.76-.023.67.031,1.373.074,1.22.909v.006c.432.083.747.289.637.887a4.141,4.141,0,0,1-.32.944,33.383,33.383,0,0,1-2.652,4.615,34.1,34.1,0,0,1-3.45,4.232c-14.395,14.946-39.929,6.864-38.995-10.379.79-14.581,12.636-24.526,27.694-28.165.579-.243,2.688-.982,4.063-1.463-.129,0-.272,0-.44.005-.437.01-.873.034-1.307.061-18.114,1.092-34.2,12.318-35.971,26.806-1.248,10.2,5.005,20.293,15.105,25.065,9.964,4.705,22.433,3.036,32.2-1.369a35.676,35.676,0,0,0,19.366-20.544c.449-1.256.888-1.326,1.614-1.4.55-.054,2.326.034,3.36-.031,2.013-.125,1.022-1.927.548-2.99C502.581,315.035,497.979,309.536,496.326,307.42Z" transform="translate(-107.293 -52.264)" fill="#fff" fill-rule="evenodd" opacity="0.59"/>
      <path id="Trazado_181" data-name="Trazado 181" d="M497.938,307.522a2.74,2.74,0,0,0-.754-.836,5.86,5.86,0,0,0-2.43,1.431c-5.173,4.861-7.964,7.993-11.935,11.678-1.655,1.536-2.355,3.153-1.332,3.817.6-.019,1.238-.034,1.626-.017a1.727,1.727,0,0,1,1.142.3c.256,0,.494,0,.673.005.7.032,1.433.077,1.274.949a4.139,4.139,0,0,1-.32.944,33.333,33.333,0,0,1-2.652,4.616,34.148,34.148,0,0,1-3.45,4.232,25.378,25.378,0,0,1-23.434,7.322c-9.763-1.261-17.911-8.129-17.375-18,.79-14.581,12.636-24.526,27.694-28.165.594-.249,2.793-1.019,4.163-1.5l-.05,0c-18.914,1.141-35.709,12.862-37.56,27.99-1.3,10.65,5.226,21.19,15.773,26.172a30.016,30.016,0,0,0,7.052,2.289c8.344,1.172,17.3-.659,24.752-4.02a37.252,37.252,0,0,0,20.222-21.452c.469-1.311.927-1.384,1.686-1.458.574-.056,2.429.036,3.508-.032,2.1-.131,1.067-2.013.573-3.122C504.47,315.474,499.664,309.731,497.938,307.522Z" transform="translate(-107.696 -52.194)" fill="#fff" fill-rule="evenodd" opacity="0.35"/>
      <path id="Trazado_182" data-name="Trazado 182" d="M538.98,296.129c10.547,4.981,17.077,15.522,15.774,26.172-1.851,15.128-18.646,26.849-37.56,27.99-.453.027-.909.053-1.364.064-.679.015-.982-.008-1.468-.024.8-.285,4.352-1.511,5.131-1.838,15.058-3.639,26.9-13.585,27.695-28.165.935-17.243-24.6-25.325-38.995-10.379a34.05,34.05,0,0,0-3.45,4.232,62.329,62.329,0,0,0-5.6,11.608c-1.861,4.632-3.1,8.061-9.343,8.061-4.6,0-8.795-3.277-4.658-14.84a37.258,37.258,0,0,1,20.222-21.452C515.557,292.958,528.575,291.215,538.98,296.129Z" transform="translate(-141.292 -51.451)" fill="#fff" fill-rule="evenodd"/>
      <path id="Trazado_183" data-name="Trazado 183" d="M548.031,302.346a29.777,29.777,0,0,0-5.24-3.171c-10.4-4.913-23.423-3.17-33.618,1.429a37.256,37.256,0,0,0-20.222,21.452c-2.5,7-1.953,10.957-.109,13a7.07,7.07,0,0,0,3.5.829c6.239,0,7.482-3.429,9.342-8.061a62.306,62.306,0,0,1,5.6-11.608,34.1,34.1,0,0,1,3.45-4.232c9.961-10.342,25.253-9.656,33.421-2.541A15.858,15.858,0,0,1,551,323.374c-.79,14.58-12.637,24.526-27.695,28.165-.287.12-.95.363-1.712.635,18.145-1.768,33.914-13.212,35.7-27.842C558.3,316.1,554.626,307.931,548.031,302.346Z" transform="translate(-143.833 -53.482)" fill="#fff" fill-rule="evenodd" opacity="0.71"/>
      <path id="Trazado_184" data-name="Trazado 184" d="M538.983,296.129c-10.4-4.913-23.423-3.171-33.618,1.428a37.258,37.258,0,0,0-20.222,21.452c-2.15,6.01-2.045,9.778-.806,12.014a6.593,6.593,0,0,0,4.194,1.3c6.239,0,7.482-3.43,9.343-8.062a62.322,62.322,0,0,1,5.6-11.608,34.141,34.141,0,0,1,3.45-4.232c11.132-11.558,28.923-9.343,35.986.23a15.487,15.487,0,0,1,4.279,11.673c-.78,14.374-12.305,24.238-27.058,28,17.138-2.484,31.643-13.556,33.354-27.552a24.185,24.185,0,0,0-5.161-17.71A29.316,29.316,0,0,0,538.983,296.129Z" transform="translate(-141.296 -51.451)" fill="#fff" fill-rule="evenodd" opacity="0.5"/>
    </g>
  </g>
</svg>
