<svg xmlns="http://www.w3.org/2000/svg" xmlns:xlink="http://www.w3.org/1999/xlink" width="222.587" height="150.954" viewBox="0 0 222.587 150.954">
  <defs>
    <linearGradient id="linear-gradient" x1="0.164" y1="0.145" x2="0.836" y2="0.855" gradientUnits="objectBoundingBox">
      <stop offset="0" stop-color="#fff"/>
      <stop offset="0.024" stop-color="#fafbf1"/>
      <stop offset="0.112" stop-color="#eaefc3"/>
      <stop offset="0.206" stop-color="#dce49a"/>
      <stop offset="0.305" stop-color="#d1db78"/>
      <stop offset="0.409" stop-color="#c7d35c"/>
      <stop offset="0.521" stop-color="#c0ce46"/>
      <stop offset="0.645" stop-color="#bbca37"/>
      <stop offset="0.788" stop-color="#b7c72e"/>
      <stop offset="1" stop-color="#b7c72c"/>
    </linearGradient>
    <linearGradient id="linear-gradient-2" x1="0.157" y1="0.155" x2="0.843" y2="0.845" gradientUnits="objectBoundingBox">
      <stop offset="0.407" stop-color="#b7c72c"/>
      <stop offset="0.552" stop-color="#b4c52c"/>
      <stop offset="0.657" stop-color="#aabf2f"/>
      <stop offset="0.748" stop-color="#9bb534"/>
      <stop offset="0.832" stop-color="#84a73c"/>
      <stop offset="0.912" stop-color="#689545"/>
      <stop offset="0.986" stop-color="#457f50"/>
      <stop offset="1" stop-color="#3e7b53"/>
    </linearGradient>
    <linearGradient id="linear-gradient-3" x1="0.164" y1="0.145" x2="0.836" y2="0.855" gradientUnits="objectBoundingBox">
      <stop offset="0" stop-color="#fff"/>
      <stop offset="0.029" stop-color="#ebf1ed"/>
      <stop offset="0.098" stop-color="#c3d6c9"/>
      <stop offset="0.174" stop-color="#9fbda9"/>
      <stop offset="0.256" stop-color="#80a88e"/>
      <stop offset="0.345" stop-color="#689778"/>
      <stop offset="0.445" stop-color="#558a67"/>
      <stop offset="0.562" stop-color="#48815b"/>
      <stop offset="0.71" stop-color="#407c55"/>
      <stop offset="1" stop-color="#3e7b53"/>
    </linearGradient>
    <linearGradient id="linear-gradient-4" x1="0.157" y1="0.155" x2="0.843" y2="0.845" gradientUnits="objectBoundingBox">
      <stop offset="0.407" stop-color="#3e7b53"/>
      <stop offset="0.552" stop-color="#407c52"/>
      <stop offset="0.657" stop-color="#4a824f"/>
      <stop offset="0.748" stop-color="#598c4a"/>
      <stop offset="0.832" stop-color="#709a42"/>
      <stop offset="0.912" stop-color="#8cac39"/>
      <stop offset="0.986" stop-color="#afc22e"/>
      <stop offset="1" stop-color="#b7c72c"/>
    </linearGradient>
    <linearGradient id="linear-gradient-5" y1="0.5" x2="1" y2="0.5" gradientUnits="objectBoundingBox">
      <stop offset="0.753" stop-color="#b7c72c"/>
      <stop offset="0.788" stop-color="#b8c82f"/>
      <stop offset="0.822" stop-color="#bccb3b"/>
      <stop offset="0.856" stop-color="#c3d04f"/>
      <stop offset="0.889" stop-color="#ccd76b"/>
      <stop offset="0.923" stop-color="#d8e18e"/>
      <stop offset="0.957" stop-color="#e7ecba"/>
      <stop offset="0.989" stop-color="#f8faed"/>
      <stop offset="1" stop-color="#fff"/>
    </linearGradient>
    <linearGradient id="linear-gradient-6" y1="0.5" x2="1" y2="0.5" gradientUnits="objectBoundingBox">
      <stop offset="0.291" stop-color="#3e7b53"/>
      <stop offset="0.448" stop-color="#407c52"/>
      <stop offset="0.549" stop-color="#49824f"/>
      <stop offset="0.633" stop-color="#588b4a"/>
      <stop offset="0.709" stop-color="#6c9843"/>
      <stop offset="0.779" stop-color="#88a93b"/>
      <stop offset="0.844" stop-color="#a8be30"/>
      <stop offset="0.868" stop-color="#b7c72c"/>
    </linearGradient>
    <linearGradient id="linear-gradient-7" x1="0.143" y1="0.182" x2="0.918" y2="0.743" gradientUnits="objectBoundingBox">
      <stop offset="0" stop-color="#fff"/>
      <stop offset="0.014" stop-color="#d9e5dd"/>
      <stop offset="0.031" stop-color="#b5ccbd"/>
      <stop offset="0.05" stop-color="#94b6a0"/>
      <stop offset="0.071" stop-color="#79a387"/>
      <stop offset="0.094" stop-color="#639474"/>
      <stop offset="0.122" stop-color="#528965"/>
      <stop offset="0.156" stop-color="#46805a"/>
      <stop offset="0.203" stop-color="#3f7c54"/>
      <stop offset="0.335" stop-color="#3e7b53"/>
    </linearGradient>
    <linearGradient id="linear-gradient-8" x1="0.145" y1="0.181" x2="0.917" y2="0.748" gradientUnits="objectBoundingBox">
      <stop offset="0.396" stop-color="#3e7b53"/>
      <stop offset="0.657" stop-color="#3f7c52"/>
      <stop offset="0.751" stop-color="#468050"/>
      <stop offset="0.819" stop-color="#52874c"/>
      <stop offset="0.873" stop-color="#639246"/>
      <stop offset="0.919" stop-color="#79a03f"/>
      <stop offset="0.96" stop-color="#93b137"/>
      <stop offset="0.996" stop-color="#b3c42d"/>
      <stop offset="1" stop-color="#b7c72c"/>
    </linearGradient>
  </defs>
  <g id="Grupo_509" data-name="Grupo 509" transform="translate(-3377 -1695.901)">
    <path id="Trazado_201" data-name="Trazado 201" d="M-128.437,556.313l-1.5,6.806h-3.057A11.562,11.562,0,0,0-133.4,560a3.034,3.034,0,0,0-1.1-1.576,3.446,3.446,0,0,0-2.029-.526,5.493,5.493,0,0,0-2.118.454,7.554,7.554,0,0,0-2.173,1.433,13.947,13.947,0,0,0-2.34,2.931,23.429,23.429,0,0,0-2,4.116,39.775,39.775,0,0,0-1.29,4.29,37.844,37.844,0,0,0-.844,4.41,30.709,30.709,0,0,0-.247,3.568,11.917,11.917,0,0,0,.366,3.239,3.653,3.653,0,0,0,1.258,1.983,3.92,3.92,0,0,0,2.484.7,6.875,6.875,0,0,0,2.993-.6,5.944,5.944,0,0,0,2.149-1.711,14.066,14.066,0,0,0,1.76-3.081h3.057l-1.5,6.885a30.263,30.263,0,0,1-4.5.94,36.45,36.45,0,0,1-4.808.294q-4.968,0-7.627-2.714t-2.651-7.825a25.761,25.761,0,0,1,.279-3.575,33.116,33.116,0,0,1,1.44-5.947,21.951,21.951,0,0,1,2.827-5.6,16.848,16.848,0,0,1,3.821-3.909,15.525,15.525,0,0,1,4.609-2.269,18.169,18.169,0,0,1,5.3-.749,26.668,26.668,0,0,1,4.077.3,26.147,26.147,0,0,1,3.765.852Zm17.087,14.273,1.369-6.273a12.812,12.812,0,0,0-3.264-.446,8.348,8.348,0,0,0-4.689,1.425,15.956,15.956,0,0,0-4.124,4.2l-.278-.1,1.744-5.405h-2.636l-6.408.255-.351,1.537a3.783,3.783,0,0,1,1.712.454,1.5,1.5,0,0,1,.549,1.345,17.489,17.489,0,0,1-.51,3.336l-3.662,16.463h6.687l2.571-11.965a15.53,15.53,0,0,1,.605-2.277,9.614,9.614,0,0,1,.812-1.712A13.076,13.076,0,0,1-120,569.743a8.681,8.681,0,0,1,1.258-1.25,4.055,4.055,0,0,1,.939-.534,2.163,2.163,0,0,1,.78-.15,1.217,1.217,0,0,1,1.155.6,4.939,4.939,0,0,1,.335,2.174Zm18.638,11.941a16.067,16.067,0,0,1-5.071,3.941,13.679,13.679,0,0,1-5.891,1.281,10.314,10.314,0,0,1-4.641-.955,6.368,6.368,0,0,1-2.882-2.835,9.683,9.683,0,0,1-.963-4.49,18.365,18.365,0,0,1,.326-3.1,18.436,18.436,0,0,1,1.353-4.569,13.674,13.674,0,0,1,2.986-4.243,12.711,12.711,0,0,1,4.323-2.732,15.059,15.059,0,0,1,5.445-.955,9.207,9.207,0,0,1,5.318,1.274,4.414,4.414,0,0,1,1.824,3.876,6.566,6.566,0,0,1-.717,3.128,6.8,6.8,0,0,1-2.364,2.453,14.327,14.327,0,0,1-4.673,1.767,37.582,37.582,0,0,1-7.292.772,13.329,13.329,0,0,0-.3,2.841,8.451,8.451,0,0,0,.159,1.648,3.729,3.729,0,0,0,.59,1.385,3.064,3.064,0,0,0,1.114.971,3.961,3.961,0,0,0,1.8.359,8.211,8.211,0,0,0,3.71-.829,17.58,17.58,0,0,0,3.894-2.946l1.958,1.958Zm-12.363-7.842a12.4,12.4,0,0,0,6.568-1.639,4.925,4.925,0,0,0,2.277-4.331,2.654,2.654,0,0,0-.549-1.808,1.932,1.932,0,0,0-1.528-.612,4.988,4.988,0,0,0-3.909,2.141,17.224,17.224,0,0,0-2.858,6.249Zm33.2-13.668c.1-.383.207-.948.326-1.672a10.64,10.64,0,0,0,.191-1.663,2.684,2.684,0,0,0-.1-.8,1.177,1.177,0,0,0-.318-.478,1.6,1.6,0,0,0-.557-.286,11.219,11.219,0,0,0-1.377-.248l.374-1.513,6.973-.374h2.635L-69.607,580.5c-.176.757-.311,1.4-.4,1.919a7.6,7.6,0,0,0-.144,1.322,1.955,1.955,0,0,0,.517,1.513,3.172,3.172,0,0,0,1.816.589l-.255,1.536h-8.955l1.258-4.785-.3-.087a20.1,20.1,0,0,1-2.954,3.184,8.954,8.954,0,0,1-2.683,1.593,9.081,9.081,0,0,1-3.041.469,5.252,5.252,0,0,1-2.866-.772,5.1,5.1,0,0,1-1.958-2.435,10.657,10.657,0,0,1-.724-4.236,22.038,22.038,0,0,1,.573-4.943,19.34,19.34,0,0,1,1.68-4.649,12.644,12.644,0,0,1,2.81-3.7,11.771,11.771,0,0,1,3.853-2.34,13.45,13.45,0,0,1,4.705-.8,11.272,11.272,0,0,1,4.012.725l.788-3.574Zm-2.372,11.853c.087-.47.175-1.012.255-1.624a15.564,15.564,0,0,0,.111-1.807,3.959,3.959,0,0,0-.581-2.357,2.223,2.223,0,0,0-1.911-.788,4.808,4.808,0,0,0-3.845,2.174,17.114,17.114,0,0,0-2.707,5.867,24.894,24.894,0,0,0-1.027,6.6,5.1,5.1,0,0,0,.5,2.547,1.685,1.685,0,0,0,1.553.836,4.685,4.685,0,0,0,3.137-1.5,12.031,12.031,0,0,0,2.571-3.535,25.575,25.575,0,0,0,1.751-5.549l.192-.86Zm22.468-17.935-1.209,5.715h-6.043l1.282-5.715Zm-5.39,26.214,3.758-17.163h-2.659l-6.831.255-.349,1.537a3.463,3.463,0,0,1,1.807.526,1.662,1.662,0,0,1,.43,1.3,8.935,8.935,0,0,1-.119,1.314c-.072.525-.215,1.249-.414,2.18l-3.638,16.28h9.7l.263-1.536a3.355,3.355,0,0,1-1.808-.589,1.782,1.782,0,0,1-.525-1.441,8.917,8.917,0,0,1,.064-.932c.048-.374.159-.955.326-1.728Zm7.239-.3a6.408,6.408,0,0,0,.693,2.691,3.182,3.182,0,0,0,1.409,1.4,4.648,4.648,0,0,0,1.958.383,4.107,4.107,0,0,0,2.85-.9,3.209,3.209,0,0,0,1-2.523,3.783,3.783,0,0,0-.326-1.656,4.311,4.311,0,0,0-1.075-1.32,18.989,18.989,0,0,0-2.428-1.664,11.124,11.124,0,0,1-3.391-2.906,5.7,5.7,0,0,1-1.059-3.375,6.1,6.1,0,0,1,2.564-5.27,12.154,12.154,0,0,1,7.18-1.839,27.905,27.905,0,0,1,3.861.287,27.745,27.745,0,0,1,3.766.788l-1.211,5.572H-37.1a5.674,5.674,0,0,0-1.106-3.2,3.282,3.282,0,0,0-2.58-1.019,3.712,3.712,0,0,0-2.508.8,2.71,2.71,0,0,0-.948,2.182,3.022,3.022,0,0,0,.366,1.513,4.6,4.6,0,0,0,1.155,1.306,19.434,19.434,0,0,0,2.356,1.585,11.086,11.086,0,0,1,3.542,3.032,6.3,6.3,0,0,1,1.075,3.662,6.561,6.561,0,0,1-1.274,4.06,7.487,7.487,0,0,1-3.478,2.492,14.263,14.263,0,0,1-5.024.819,33.747,33.747,0,0,1-4.641-.3,34.021,34.021,0,0,1-4.037-.819l1.305-5.78Zm36.3,1.679-1.958-1.958a17.55,17.55,0,0,1-3.894,2.946,8.212,8.212,0,0,1-3.709.829,3.961,3.961,0,0,1-1.8-.359,3.072,3.072,0,0,1-1.115-.971,3.714,3.714,0,0,1-.589-1.385,8.489,8.489,0,0,1-.16-1.648,13.33,13.33,0,0,1,.3-2.841,37.58,37.58,0,0,0,7.292-.772,14.322,14.322,0,0,0,4.674-1.767,6.789,6.789,0,0,0,2.363-2.453,6.566,6.566,0,0,0,.718-3.128,4.413,4.413,0,0,0-1.824-3.876,9.2,9.2,0,0,0-5.317-1.274,15.062,15.062,0,0,0-5.446.955,12.7,12.7,0,0,0-4.323,2.732A13.672,13.672,0,0,0-31.4,571.8a18.372,18.372,0,0,0-1.353,4.569,18.278,18.278,0,0,0-.326,3.1,9.683,9.683,0,0,0,.963,4.49A6.362,6.362,0,0,0-29.23,586.8a10.307,10.307,0,0,0,4.641.955,13.683,13.683,0,0,0,5.891-1.281,16.067,16.067,0,0,0,5.071-3.941Zm-12.364-7.842a17.232,17.232,0,0,1,2.858-6.249,4.99,4.99,0,0,1,3.91-2.141,1.929,1.929,0,0,1,1.528.612,2.651,2.651,0,0,1,.55,1.808,4.925,4.925,0,0,1-2.277,4.331,12.4,12.4,0,0,1-6.568,1.639Zm35.095-4.1H4.925a4.952,4.952,0,0,0-.334-2.174,1.219,1.219,0,0,0-1.155-.6,2.162,2.162,0,0,0-.78.15,4.07,4.07,0,0,0-.939.534,8.63,8.63,0,0,0-1.258,1.25,13.009,13.009,0,0,0-1.226,1.679,9.653,9.653,0,0,0-.813,1.712,15.632,15.632,0,0,0-.6,2.277l-2.572,11.965h-6.688l3.662-16.463a17.463,17.463,0,0,0,.509-3.336,1.5,1.5,0,0,0-.548-1.345,3.788,3.788,0,0,0-1.712-.454l.351-1.537,6.407-.255H-.139l-1.743,5.405.279.1a15.951,15.951,0,0,1,4.123-4.2,8.348,8.348,0,0,1,4.69-1.425,12.817,12.817,0,0,1,3.264.446L9.1,570.587Zm24.88-6.345.811,1.537q-2.938,7.785-13.573,21.948H16.7l-2.166-17.769a13.35,13.35,0,0,0-.526-2.644,2.575,2.575,0,0,0-.741-1.115,2.446,2.446,0,0,0-1.329-.421l.351-1.537h8.215l1.608,17.419a66.755,66.755,0,0,0,5.191-8.408,13.542,13.542,0,0,0,1.663-5.629,1.923,1.923,0,0,0-.421-1.345,2.067,2.067,0,0,0-1.465-.5l.326-1.537Zm12.979-9.306-1.211,5.715H39.709l1.282-5.715Zm-5.39,26.214,3.757-17.163H42.671l-6.83.255-.351,1.537a3.458,3.458,0,0,1,1.807.526,1.66,1.66,0,0,1,.431,1.3,9.03,9.03,0,0,1-.119,1.314c-.072.525-.215,1.249-.414,2.18l-3.638,16.28h9.7l.263-1.536a3.355,3.355,0,0,1-1.807-.589,1.78,1.78,0,0,1-.525-1.441,8.737,8.737,0,0,1,.064-.932c.047-.374.158-.955.326-1.728Zm25.088-10.564H62.481a4.951,4.951,0,0,0-.335-2.174,1.219,1.219,0,0,0-1.155-.6,2.163,2.163,0,0,0-.78.15,4.04,4.04,0,0,0-.939.534,8.623,8.623,0,0,0-1.258,1.25,13.011,13.011,0,0,0-1.226,1.679,9.662,9.662,0,0,0-.813,1.712,15.592,15.592,0,0,0-.605,2.277L52.8,587.376H46.113l3.662-16.463a17.45,17.45,0,0,0,.509-3.336,1.5,1.5,0,0,0-.548-1.345,3.788,3.788,0,0,0-1.712-.454l.349-1.537,6.409-.255h2.635l-1.743,5.405.278.1a15.936,15.936,0,0,1,4.124-4.2,8.348,8.348,0,0,1,4.69-1.425,12.817,12.817,0,0,1,3.264.446Z" transform="translate(3531.557 1244.859)" fill="#3e7b53"/>
    <path id="Trazado_202" data-name="Trazado 202" d="M194.312,776.35a3.118,3.118,0,0,1,3.384,3.385,4.691,4.691,0,0,1-1.125,3.273,3.827,3.827,0,0,1-2.974,1.241,3.276,3.276,0,0,1-2.439-.9,3.366,3.366,0,0,1-.886-2.472,4.727,4.727,0,0,1,1.116-3.283,3.742,3.742,0,0,1,2.925-1.246Zm35.689.143q-.4,1.983-.605,3.226a12.994,12.994,0,0,0-.2,1.734,1.351,1.351,0,0,0,.252.87.847.847,0,0,0,.7.31,2.5,2.5,0,0,0,.726-.137,5.8,5.8,0,0,0,.932-.4l.115-.794q.214-1.4.322-2.5c.071-.727.118-1.426.134-2.088q.546-.006,1.085-.065c.359-.036.712-.091,1.062-.157q-.457,2.517-.672,4.227a23.343,23.343,0,0,0-.214,2.82c0,.057,0,.137.007.243a1.525,1.525,0,0,1,0,.229c-.064,0-.131-.007-.207-.009s-.186-.005-.33-.005c-.176,0-.354.008-.532.018s-.36.031-.546.054l-.209-.949a11.653,11.653,0,0,1-1.667.831,3.523,3.523,0,0,1-1.238.269,1.583,1.583,0,0,1-1.25-.508,2.064,2.064,0,0,1-.452-1.417q0-.366.271-2.217a29.125,29.125,0,0,0,.322-3.363c.359,0,.723-.026,1.1-.065s.737-.091,1.1-.157Zm32.144-3.6q-.666,3.685-1,6.287a34.878,34.878,0,0,0-.332,4.114c0,.1,0,.2.008.307s.012.242.022.408l-1.609.015L259,782.974a4.253,4.253,0,0,1-1.246.924,3.163,3.163,0,0,1-1.379.322,2.23,2.23,0,0,1-1.863-.88,3.821,3.821,0,0,1-.684-2.4,4.956,4.956,0,0,1,1.073-3.287,3.387,3.387,0,0,1,2.719-1.284,3.25,3.25,0,0,1,1,.156,4.006,4.006,0,0,1,.983.489c.072-.654.135-1.295.186-1.922s.093-1.235.123-1.828c.385-.033.769-.079,1.145-.14s.739-.134,1.094-.225Zm-2.74,5.386a2.836,2.836,0,0,0-.73-.371,2.478,2.478,0,0,0-.764-.122,1.835,1.835,0,0,0-1.548.794,3.439,3.439,0,0,0-.592,2.1,2.4,2.4,0,0,0,.394,1.438,1.215,1.215,0,0,0,1.029.544,1.651,1.651,0,0,0,1.541-1.013,9.214,9.214,0,0,0,.669-3.372Zm-8.211,1.258c.015-.091.027-.184.035-.279s.01-.192.01-.293a1.225,1.225,0,0,0-1.346-1.346,1.484,1.484,0,0,0-1.144.5,2.689,2.689,0,0,0-.6,1.414Zm1.624,1.059h-4.8c-.005.039-.01.083-.012.137s0,.122,0,.214a1.636,1.636,0,0,0,1.831,1.832,5.321,5.321,0,0,0,2.168-.459l-.149,1.326a5.871,5.871,0,0,1-2.606.6,3.061,3.061,0,0,1-2.315-.86,3.315,3.315,0,0,1-.825-2.394,5.03,5.03,0,0,1,1.084-3.367,3.549,3.549,0,0,1,2.843-1.277,2.92,2.92,0,0,1,2.141.754,2.834,2.834,0,0,1,.764,2.114c0,.267-.01.516-.028.744a4.747,4.747,0,0,1-.093.637Zm-8.1-6.329a6.28,6.28,0,0,1-.8.232,5.379,5.379,0,0,1-.794.121l-.722,1.843-1.38.573-.188.88H242.1q-.114.841-.322,2.19a21.547,21.547,0,0,0-.264,2.157,1.807,1.807,0,0,0,.515,1.4,2.139,2.139,0,0,0,1.5.477,5.16,5.16,0,0,0,.742-.057,6.4,6.4,0,0,0,.769-.173l.371-1.323a4.564,4.564,0,0,1-.478.093,3,3,0,0,1-.389.029,1.152,1.152,0,0,1-.833-.251,1.1,1.1,0,0,1-.253-.809,12.091,12.091,0,0,1,.137-1.394c.091-.662.217-1.444.378-2.339h1.609l.545-1.331h-1.917c.085-.456.171-.872.255-1.24s.168-.727.253-1.077Zm-4.609,2.332-.071,1.372a6.842,6.842,0,0,0-.769-.2,3.735,3.735,0,0,0-.635-.064,1.726,1.726,0,0,0-.955.233.706.706,0,0,0-.354.618.7.7,0,0,0,.171.454,4.215,4.215,0,0,0,.8.635l.085.055q1.418.931,1.417,1.932a2.164,2.164,0,0,1-.909,1.8,3.8,3.8,0,0,1-2.369.693,5.144,5.144,0,0,1-.855-.07,4.761,4.761,0,0,1-.818-.222l-.015-1.46a4.53,4.53,0,0,0,.848.293,3.7,3.7,0,0,0,.826.1,1.672,1.672,0,0,0,.974-.261.794.794,0,0,0,.371-.676c0-.3-.3-.641-.887-1.024-.125-.076-.219-.134-.287-.177a3.562,3.562,0,0,1-1.033-.9,1.692,1.692,0,0,1-.268-.961,2.075,2.075,0,0,1,.891-1.734,3.832,3.832,0,0,1,2.363-.669,4.663,4.663,0,0,1,.684.056,6.382,6.382,0,0,1,.791.181Zm-32.465-.045.049,1.6a2.359,2.359,0,0,0-.641-.233,3.551,3.551,0,0,0-.769-.076,2.165,2.165,0,0,0-1.738.787,3.106,3.106,0,0,0-.665,2.071,2.017,2.017,0,0,0,.465,1.437,1.765,1.765,0,0,0,1.353.494,3.552,3.552,0,0,0,.784-.091,5,5,0,0,0,.853-.274L207,783.819a5.178,5.178,0,0,1-1.025.313,6.191,6.191,0,0,1-1.142.1,2.6,2.6,0,0,1-2.065-.855,3.489,3.489,0,0,1-.746-2.37,4.806,4.806,0,0,1,1.166-3.345,3.857,3.857,0,0,1,3.011-1.3,5.651,5.651,0,0,1,.726.046,5.581,5.581,0,0,1,.721.146Zm14.942,7.454h-2.2q.384-1.808.586-3.066a12.993,12.993,0,0,0,.2-1.812,1.315,1.315,0,0,0-.255-.876.937.937,0,0,0-.754-.3,2.749,2.749,0,0,0-.752.122,6.231,6.231,0,0,0-.943.379q-.215,1.259-.371,2.637t-.28,2.914h-2.18q.48-2.032.725-3.8a23.071,23.071,0,0,0,.247-3.2v-.466h.2c.234-.005.466-.018.7-.039s.465-.051.7-.091l.267,1.052a10.067,10.067,0,0,1,1.66-.833,3.8,3.8,0,0,1,1.293-.268,1.613,1.613,0,0,1,1.264.5,2.011,2.011,0,0,1,.454,1.4q0,.353-.252,2.254t-.307,3.491ZM212,776.35a3.118,3.118,0,0,1,3.384,3.385,4.687,4.687,0,0,1-1.125,3.273,3.825,3.825,0,0,1-2.974,1.241,3.277,3.277,0,0,1-2.439-.9,3.366,3.366,0,0,1-.886-2.472,4.727,4.727,0,0,1,1.116-3.283A3.74,3.74,0,0,1,212,776.35Zm1.438,3.355a2.136,2.136,0,0,0-.4-1.391,1.413,1.413,0,0,0-1.153-.484,1.652,1.652,0,0,0-1.441.822,4,4,0,0,0-.54,2.212,2.168,2.168,0,0,0,.394,1.4,1.4,1.4,0,0,0,1.144.478,1.659,1.659,0,0,0,1.45-.823,3.948,3.948,0,0,0,.544-2.212Zm-68.69-5.976.015,1.995a3.524,3.524,0,0,0-.891-.383,3.662,3.662,0,0,0-.985-.133,2.888,2.888,0,0,0-2.447,1.262,5.536,5.536,0,0,0-.923,3.338,3.056,3.056,0,0,0,.576,2.017,2.117,2.117,0,0,0,1.707.678,4.325,4.325,0,0,0,1.194-.179,7.266,7.266,0,0,0,1.331-.536l-.471,1.831a5.8,5.8,0,0,1-1.274.469,5.6,5.6,0,0,1-1.338.161,3.748,3.748,0,0,1-2.9-1.1,4.46,4.46,0,0,1-1.016-3.132,8.59,8.59,0,0,1,.361-2.531,6.519,6.519,0,0,1,1.055-2.083,4.894,4.894,0,0,1,1.77-1.438,5.316,5.316,0,0,1,2.308-.486,7.423,7.423,0,0,1,.962.064,8.487,8.487,0,0,1,.969.188Zm2.471,2.679c-.213.043-.432.075-.654.1s-.447.034-.677.039H145.7c.005.062.01.129.013.2s0,.188,0,.347a20.878,20.878,0,0,1-.247,2.935q-.246,1.692-.769,3.982h2.232a16.165,16.165,0,0,1,.674-4.633,1.658,1.658,0,0,1,1.595-1.167,1.25,1.25,0,0,1,.4.064,1.518,1.518,0,0,1,.384.2l.563-1.846a2.348,2.348,0,0,0-.391-.133,1.626,1.626,0,0,0-.38-.046,1.978,1.978,0,0,0-1.174.4,5.04,5.04,0,0,0-1.16,1.271l-.222-1.719Zm8.093,3.133c.014-.091.026-.184.034-.279s.01-.192.01-.293a1.225,1.225,0,0,0-1.345-1.346,1.488,1.488,0,0,0-1.146.5,2.684,2.684,0,0,0-.6,1.414Zm1.623,1.059h-4.8c0,.039-.009.083-.012.137s0,.122,0,.214a1.636,1.636,0,0,0,1.831,1.832,5.327,5.327,0,0,0,2.168-.459l-.149,1.326a5.871,5.871,0,0,1-2.605.6,3.057,3.057,0,0,1-2.315-.86,3.309,3.309,0,0,1-.825-2.394,5.027,5.027,0,0,1,1.084-3.367,3.546,3.546,0,0,1,2.842-1.277,2.921,2.921,0,0,1,2.141.754,2.835,2.835,0,0,1,.764,2.114c0,.267-.01.516-.03.744a4.666,4.666,0,0,1-.093.637Zm6.3-4.041.049,1.6a2.352,2.352,0,0,0-.64-.233,3.556,3.556,0,0,0-.769-.076,2.166,2.166,0,0,0-1.738.787,3.109,3.109,0,0,0-.664,2.071,2.014,2.014,0,0,0,.464,1.437,1.764,1.764,0,0,0,1.352.494,3.542,3.542,0,0,0,.784-.091,5.015,5.015,0,0,0,.854-.274l-.336,1.551a5.164,5.164,0,0,1-1.025.313,6.187,6.187,0,0,1-1.141.1,2.6,2.6,0,0,1-2.065-.855,3.486,3.486,0,0,1-.747-2.37,4.806,4.806,0,0,1,1.167-3.345,3.855,3.855,0,0,1,3.011-1.3,5.643,5.643,0,0,1,.725.046,5.557,5.557,0,0,1,.72.146Zm3.617-.134q-.381,1.875-.628,3.773t-.354,3.815h-2.209q.5-2.4.74-4.109a21.416,21.416,0,0,0,.239-2.864c0-.053,0-.129-.007-.229s-.008-.173-.008-.222c.35,0,.708-.012,1.082-.042s.754-.071,1.145-.122Zm-.907-3.385a1.045,1.045,0,0,1,.754.264.972.972,0,0,1,.275.73,1.3,1.3,0,0,1-.385.94,1.242,1.242,0,0,1-.923.4.918.918,0,0,1-.713-.293,1.111,1.111,0,0,1-.269-.779,1.214,1.214,0,0,1,1.26-1.261Zm6.239,6.5c.015-.091.026-.184.034-.279s.01-.192.01-.293a1.224,1.224,0,0,0-1.346-1.346,1.486,1.486,0,0,0-1.145.5,2.673,2.673,0,0,0-.6,1.414ZM173.8,780.6H169c0,.039-.01.083-.012.137s0,.122,0,.214a1.636,1.636,0,0,0,1.831,1.832,5.321,5.321,0,0,0,2.168-.459l-.149,1.326a5.869,5.869,0,0,1-2.6.6,3.058,3.058,0,0,1-2.315-.86,3.312,3.312,0,0,1-.825-2.394,5.027,5.027,0,0,1,1.084-3.367,3.546,3.546,0,0,1,2.842-1.277,2.919,2.919,0,0,1,2.141.754,2.835,2.835,0,0,1,.764,2.114c0,.267-.01.516-.03.744a4.642,4.642,0,0,1-.093.637Zm7.193,3.413H178.8q.385-1.808.586-3.066a12.863,12.863,0,0,0,.2-1.812,1.318,1.318,0,0,0-.254-.876.938.938,0,0,0-.754-.3,2.758,2.758,0,0,0-.752.122,6.287,6.287,0,0,0-.943.379q-.215,1.259-.371,2.637t-.28,2.914h-2.18q.48-2.032.725-3.8a23.105,23.105,0,0,0,.247-3.2v-.466h.2c.234-.005.467-.018.7-.039s.464-.051.7-.091l.266,1.052a10.093,10.093,0,0,1,1.66-.833,3.807,3.807,0,0,1,1.294-.268,1.61,1.61,0,0,1,1.262.5,2.009,2.009,0,0,1,.454,1.4q0,.353-.251,2.254t-.308,3.491Zm9.478-11.116c-.354.091-.718.167-1.094.225s-.759.107-1.145.14c-.029.593-.068,1.2-.122,1.828s-.115,1.268-.186,1.922a4.015,4.015,0,0,0-.984-.489,3.251,3.251,0,0,0-1-.156,3.387,3.387,0,0,0-2.72,1.284,4.952,4.952,0,0,0-1.072,3.287,3.821,3.821,0,0,0,.683,2.4,2.231,2.231,0,0,0,1.863.88,3.168,3.168,0,0,0,1.38-.322,4.254,4.254,0,0,0,1.245-.924l.237,1.052,1.61-.015c-.01-.165-.018-.3-.022-.408s-.007-.207-.007-.307a34.753,34.753,0,0,1,.332-4.114q.333-2.6,1-6.287Zm-2.739,5.386a9.218,9.218,0,0,1-.669,3.372,1.65,1.65,0,0,1-1.541,1.013,1.216,1.216,0,0,1-1.031-.544,2.4,2.4,0,0,1-.393-1.438,3.442,3.442,0,0,1,.59-2.1,1.838,1.838,0,0,1,1.548-.794,2.479,2.479,0,0,1,.765.122,2.846,2.846,0,0,1,.73.371Zm8.016,1.423a2.131,2.131,0,0,0-.4-1.391,1.411,1.411,0,0,0-1.153-.484,1.652,1.652,0,0,0-1.44.822,4,4,0,0,0-.54,2.212,2.167,2.167,0,0,0,.394,1.4,1.4,1.4,0,0,0,1.145.478,1.659,1.659,0,0,0,1.45-.823A3.948,3.948,0,0,0,195.749,779.7Z" transform="translate(3288.562 1062.606)" fill="#b7c72c"/>
    <g id="Grupo_449" data-name="Grupo 449" transform="translate(3462.267 1695.901)">
      <path id="Trazado_203" data-name="Trazado 203" d="M364.9-40.418a10.244,10.244,0,0,0,10.311-10.136A10.244,10.244,0,0,0,364.9-60.689a10.244,10.244,0,0,0-10.31,10.135A10.244,10.244,0,0,0,364.9-40.418Z" transform="translate(-354.592 60.689)" fill="#b7c72c" fill-rule="evenodd"/>
      <path id="Trazado_204" data-name="Trazado 204" d="M378.994-43.27a9.91,9.91,0,0,0-.761-3.8,10.349,10.349,0,0,0-8.79-4.869A10.244,10.244,0,0,0,359.133-41.8a9.908,9.908,0,0,0,.761,3.8,10.348,10.348,0,0,0,8.789,4.869A10.244,10.244,0,0,0,378.994-43.27Z" transform="translate(-358.373 53.405)" fill-rule="evenodd" fill="url(#linear-gradient)"/>
      <path id="Trazado_205" data-name="Trazado 205" d="M364.9-60.689a10.244,10.244,0,0,0-10.31,10.135,10.011,10.011,0,0,0,2.977,7.108,10.357,10.357,0,0,0,5.965,1.888,10.244,10.244,0,0,0,10.312-10.136,10.013,10.013,0,0,0-2.977-7.108A10.361,10.361,0,0,0,364.9-60.689Z" transform="translate(-354.592 60.689)" fill-rule="evenodd" opacity="0.5" fill="url(#linear-gradient-2)"/>
    </g>
    <g id="Grupo_450" data-name="Grupo 450" transform="translate(3497.63 1695.901)">
      <path id="Trazado_206" data-name="Trazado 206" d="M576.062-40.418a10.244,10.244,0,0,0,10.312-10.136,10.244,10.244,0,0,0-10.312-10.135,10.243,10.243,0,0,0-10.31,10.135A10.244,10.244,0,0,0,576.062-40.418Z" transform="translate(-565.752 60.689)" fill="#3e7b53" fill-rule="evenodd"/>
      <path id="Trazado_207" data-name="Trazado 207" d="M590.15-43.27a9.91,9.91,0,0,0-.762-3.8,10.348,10.348,0,0,0-8.79-4.869A10.244,10.244,0,0,0,570.288-41.8a9.909,9.909,0,0,0,.761,3.8,10.348,10.348,0,0,0,8.789,4.869A10.244,10.244,0,0,0,590.15-43.27Z" transform="translate(-569.528 53.405)" fill-rule="evenodd" fill="url(#linear-gradient-3)"/>
      <path id="Trazado_208" data-name="Trazado 208" d="M576.062-60.689a10.243,10.243,0,0,0-10.31,10.135,10.013,10.013,0,0,0,2.976,7.108,10.356,10.356,0,0,0,5.966,1.888,10.244,10.244,0,0,0,10.311-10.136,10.015,10.015,0,0,0-2.976-7.108A10.36,10.36,0,0,0,576.062-60.689Z" transform="translate(-565.752 60.689)" fill-rule="evenodd" opacity="0.5" fill="url(#linear-gradient-4)"/>
    </g>
    <path id="Trazado_209" data-name="Trazado 209" d="M219.942,177.62c-12.091-5.711-19.576-17.795-18.082-30,2.122-17.343,21.375-30.781,43.059-32.088.52-.031,1.042-.061,1.566-.073.777-.018,1.125.009,1.682.027-.92.328-4.989,1.733-5.883,2.107-17.263,4.172-30.843,15.574-31.749,32.289-1.071,19.768,28.2,29.032,44.7,11.9a39.126,39.126,0,0,0,3.955-4.851,38.233,38.233,0,0,0,3.04-5.291,4.741,4.741,0,0,0,.366-1.082c.182-1-.658-1.051-1.461-1.088-.5-.022-1.359,0-2.107.027-3.424.118-2.833-2.389-.31-4.73,4.553-4.225,7.752-7.816,13.683-13.388,1.281-1.2,4.105-3.033,5.73-.335,1.978,2.532,7.488,9.115,10.14,15.063.567,1.272,1.753,3.429-.657,3.579-1.237.078-3.363-.027-4.022.037-.869.084-1.395.168-1.933,1.671a42.707,42.707,0,0,1-23.182,24.593C246.795,181.254,231.869,183.253,219.942,177.62Z" transform="translate(3234.987 1609.949)" fill="#b7c72c" fill-rule="evenodd"/>
    <path id="Trazado_210" data-name="Trazado 210" d="M285.941,133.141a2.691,2.691,0,0,0-1.264-1.165,6.345,6.345,0,0,0-3.08,1.7c-5.931,5.573-9.13,9.163-13.683,13.388-1.307,1.212-2.088,2.466-2.069,3.38a2.961,2.961,0,0,0,1.8.372c.716-.024,1.541-.047,2.018-.026.768.036,1.574.085,1.4,1.042,0,0,0,0,0,.006.5.095.856.331.731,1.016a4.74,4.74,0,0,1-.366,1.082,38.232,38.232,0,0,1-3.04,5.291,39.127,39.127,0,0,1-3.955,4.851c-16.5,17.134-45.775,7.869-44.7-11.9.906-16.715,14.486-28.117,31.749-32.289.664-.279,3.082-1.126,4.658-1.678-.148,0-.312,0-.505.006-.5.011-1,.04-1.5.07-20.766,1.252-39.205,14.122-41.237,30.73-1.431,11.693,5.738,23.264,17.317,28.735,11.423,5.394,25.717,3.48,36.911-1.57a40.9,40.9,0,0,0,22.2-23.552c.515-1.439,1.018-1.52,1.851-1.6.63-.061,2.666.04,3.852-.035,2.308-.144,1.171-2.21.628-3.428C293.112,141.871,287.836,135.567,285.941,133.141Z" transform="translate(3225.795 1607.65)" fill-rule="evenodd" opacity="0.59" fill="url(#linear-gradient-5)"/>
    <path id="Trazado_211" data-name="Trazado 211" d="M288.477,133.14a3.136,3.136,0,0,0-.864-.959,6.716,6.716,0,0,0-2.786,1.641c-5.931,5.572-9.13,9.163-13.683,13.388-1.9,1.761-2.7,3.615-1.526,4.375.685-.022,1.419-.039,1.863-.019a1.981,1.981,0,0,1,1.309.34c.294,0,.567,0,.771.006.8.037,1.643.089,1.461,1.088a4.743,4.743,0,0,1-.366,1.082,38.233,38.233,0,0,1-3.04,5.291,39.16,39.16,0,0,1-3.955,4.851A29.093,29.093,0,0,1,240.8,172.62c-11.193-1.445-20.533-9.319-19.92-20.639.906-16.715,14.486-28.117,31.749-32.289.681-.285,3.2-1.168,4.772-1.718l-.057,0c-21.684,1.308-40.937,14.746-43.059,32.088-1.494,12.209,5.992,24.293,18.082,30a34.4,34.4,0,0,0,8.085,2.624c9.566,1.344,19.835-.756,28.376-4.609a42.707,42.707,0,0,0,23.182-24.593c.538-1.5,1.063-1.587,1.933-1.671.658-.064,2.785.041,4.022-.037,2.41-.15,1.224-2.308.657-3.579C295.965,142.256,290.455,135.673,288.477,133.14Z" transform="translate(3224.645 1607.847)" fill-rule="evenodd" opacity="0.35" fill="url(#linear-gradient-6)"/>
    <path id="Trazado_212" data-name="Trazado 212" d="M392.755,118.813c12.091,5.711,19.577,17.795,18.083,30-2.122,17.343-21.375,30.78-43.06,32.088-.52.031-1.041.06-1.564.073-.778.018-1.126-.01-1.683-.028.92-.327,4.989-1.732,5.883-2.107,17.263-4.172,30.842-15.573,31.75-32.288,1.071-19.767-28.2-29.033-44.7-11.9a39.056,39.056,0,0,0-3.955,4.851c-2.713,4.02-4.626,8.838-6.422,13.308-2.134,5.311-3.558,9.242-10.711,9.242-5.268,0-10.082-3.757-5.339-17.013a42.711,42.711,0,0,1,23.183-24.593C365.9,115.178,380.827,113.18,392.755,118.813Z" transform="translate(3128.903 1609.964)" fill="#3e7b53" fill-rule="evenodd"/>
    <path id="Trazado_213" data-name="Trazado 213" d="M407.461,129.4a34.143,34.143,0,0,0-6.008-3.635c-11.928-5.633-26.852-3.634-38.54,1.638A42.711,42.711,0,0,0,339.731,152c-2.871,8.022-2.238,12.561-.125,14.9a8.107,8.107,0,0,0,4.009.95c7.152,0,8.577-3.931,10.71-9.242,1.8-4.47,3.708-9.288,6.422-13.308a39.108,39.108,0,0,1,3.955-4.851c11.42-11.856,28.95-11.07,38.314-2.912a18.181,18.181,0,0,1,7.847,15.975c-.906,16.715-14.487,28.117-31.749,32.288-.329.138-1.089.416-1.963.728,20.8-2.027,38.879-15.146,40.931-31.919C419.236,145.165,415.021,135.8,407.461,129.4Z" transform="translate(3121.66 1604.176)" fill-rule="evenodd" opacity="0.71" fill="url(#linear-gradient-7)"/>
    <path id="Trazado_214" data-name="Trazado 214" d="M392.766,118.813c-11.928-5.633-26.852-3.634-38.54,1.638a42.711,42.711,0,0,0-23.183,24.593c-2.465,6.89-2.345,11.21-.924,13.773a7.557,7.557,0,0,0,4.808,1.493c7.153,0,8.577-3.931,10.711-9.242,1.8-4.47,3.708-9.288,6.422-13.308a39.114,39.114,0,0,1,3.955-4.851c12.762-13.25,33.157-10.71,41.254.263a17.755,17.755,0,0,1,4.906,13.382c-.894,16.478-14.107,27.787-31.02,32.1,19.647-2.847,36.276-15.541,38.238-31.586a27.726,27.726,0,0,0-5.917-20.3A33.615,33.615,0,0,0,392.766,118.813Z" transform="translate(3128.892 1609.964)" fill-rule="evenodd" opacity="0.5" fill="url(#linear-gradient-8)"/>
  </g>
</svg>
